# SM_Ball_Gem mesh
o SM_Ball_Gem
v 0.0000 0.4400 0.0000
v 0.0000 0.4400 0.0000
v 0.0000 0.4400 0.0000
v 0.0000 0.4400 0.0000
v 0.0000 0.4400 0.0000
v 0.0000 0.4400 0.0000
v 0.0000 0.4400 -0.0000
v 0.0000 0.4400 -0.0000
v 0.0000 0.4400 -0.0000
v 0.0000 0.4400 -0.0000
v 0.0000 0.4400 -0.0000
v -0.0000 0.4400 -0.0000
v -0.0000 0.4400 -0.0000
v -0.0000 0.4400 -0.0000
v -0.0000 0.4400 -0.0000
v -0.0000 0.4400 -0.0000
v -0.0000 0.4400 0.0000
v -0.0000 0.4400 0.0000
v -0.0000 0.4400 0.0000
v -0.0000 0.4400 0.0000
v -0.0000 0.4400 0.0000
v 0.0000 0.4315 0.0858
v 0.0265 0.4315 0.0816
v 0.0505 0.4315 0.0694
v 0.0694 0.4315 0.0505
v 0.0816 0.4315 0.0265
v 0.0858 0.4315 0.0000
v 0.0816 0.4315 -0.0265
v 0.0694 0.4315 -0.0505
v 0.0505 0.4315 -0.0694
v 0.0265 0.4315 -0.0816
v 0.0000 0.4315 -0.0858
v -0.0265 0.4315 -0.0816
v -0.0505 0.4315 -0.0694
v -0.0694 0.4315 -0.0505
v -0.0816 0.4315 -0.0265
v -0.0858 0.4315 -0.0000
v -0.0816 0.4315 0.0265
v -0.0694 0.4315 0.0505
v -0.0505 0.4315 0.0694
v -0.0265 0.4315 0.0816
v -0.0000 0.4315 0.0858
v 0.0000 0.4065 0.1684
v 0.0520 0.4065 0.1601
v 0.0990 0.4065 0.1362
v 0.1362 0.4065 0.0990
v 0.1601 0.4065 0.0520
v 0.1684 0.4065 0.0000
v 0.1601 0.4065 -0.0520
v 0.1362 0.4065 -0.0990
v 0.0990 0.4065 -0.1362
v 0.0520 0.4065 -0.1601
v 0.0000 0.4065 -0.1684
v -0.0520 0.4065 -0.1601
v -0.0990 0.4065 -0.1362
v -0.1362 0.4065 -0.0990
v -0.1601 0.4065 -0.0520
v -0.1684 0.4065 -0.0000
v -0.1601 0.4065 0.0520
v -0.1362 0.4065 0.0990
v -0.0990 0.4065 0.1362
v -0.0520 0.4065 0.1601
v -0.0000 0.4065 0.1684
v 0.0000 0.3658 0.2445
v 0.0755 0.3658 0.2325
v 0.1437 0.3658 0.1978
v 0.1978 0.3658 0.1437
v 0.2325 0.3658 0.0755
v 0.2445 0.3658 0.0000
v 0.2325 0.3658 -0.0755
v 0.1978 0.3658 -0.1437
v 0.1437 0.3658 -0.1978
v 0.0755 0.3658 -0.2325
v 0.0000 0.3658 -0.2445
v -0.0755 0.3658 -0.2325
v -0.1437 0.3658 -0.1978
v -0.1978 0.3658 -0.1437
v -0.2325 0.3658 -0.0755
v -0.2445 0.3658 -0.0000
v -0.2325 0.3658 0.0755
v -0.1978 0.3658 0.1437
v -0.1437 0.3658 0.1978
v -0.0755 0.3658 0.2325
v -0.0000 0.3658 0.2445
v 0.0000 0.3111 0.3111
v 0.0961 0.3111 0.2959
v 0.1829 0.3111 0.2517
v 0.2517 0.3111 0.1829
v 0.2959 0.3111 0.0961
v 0.3111 0.3111 0.0000
v 0.2959 0.3111 -0.0961
v 0.2517 0.3111 -0.1829
v 0.1829 0.3111 -0.2517
v 0.0961 0.3111 -0.2959
v 0.0000 0.3111 -0.3111
v -0.0961 0.3111 -0.2959
v -0.1829 0.3111 -0.2517
v -0.2517 0.3111 -0.1829
v -0.2959 0.3111 -0.0961
v -0.3111 0.3111 -0.0000
v -0.2959 0.3111 0.0961
v -0.2517 0.3111 0.1829
v -0.1829 0.3111 0.2517
v -0.0961 0.3111 0.2959
v -0.0000 0.3111 0.3111
v 0.0000 0.2445 0.3658
v 0.1131 0.2445 0.3479
v 0.2150 0.2445 0.2960
v 0.2960 0.2445 0.2150
v 0.3479 0.2445 0.1131
v 0.3658 0.2445 0.0000
v 0.3479 0.2445 -0.1131
v 0.2960 0.2445 -0.2150
v 0.2150 0.2445 -0.2960
v 0.1131 0.2445 -0.3479
v 0.0000 0.2445 -0.3658
v -0.1131 0.2445 -0.3479
v -0.2150 0.2445 -0.2960
v -0.2960 0.2445 -0.2150
v -0.3479 0.2445 -0.1131
v -0.3658 0.2445 -0.0000
v -0.3479 0.2445 0.1131
v -0.2960 0.2445 0.2150
v -0.2150 0.2445 0.2960
v -0.1131 0.2445 0.3479
v -0.0000 0.2445 0.3658
v 0.0000 0.1684 0.4065
v 0.1256 0.1684 0.3866
v 0.2389 0.1684 0.3289
v 0.3289 0.1684 0.2389
v 0.3866 0.1684 0.1256
v 0.4065 0.1684 0.0000
v 0.3866 0.1684 -0.1256
v 0.3289 0.1684 -0.2389
v 0.2389 0.1684 -0.3289
v 0.1256 0.1684 -0.3866
v 0.0000 0.1684 -0.4065
v -0.1256 0.1684 -0.3866
v -0.2389 0.1684 -0.3289
v -0.3289 0.1684 -0.2389
v -0.3866 0.1684 -0.1256
v -0.4065 0.1684 -0.0000
v -0.3866 0.1684 0.1256
v -0.3289 0.1684 0.2389
v -0.2389 0.1684 0.3289
v -0.1256 0.1684 0.3866
v -0.0000 0.1684 0.4065
v 0.0000 0.0858 0.4315
v 0.1334 0.0858 0.4104
v 0.2537 0.0858 0.3491
v 0.3491 0.0858 0.2537
v 0.4104 0.0858 0.1334
v 0.4315 0.0858 0.0000
v 0.4104 0.0858 -0.1334
v 0.3491 0.0858 -0.2537
v 0.2537 0.0858 -0.3491
v 0.1334 0.0858 -0.4104
v 0.0000 0.0858 -0.4315
v -0.1334 0.0858 -0.4104
v -0.2537 0.0858 -0.3491
v -0.3491 0.0858 -0.2537
v -0.4104 0.0858 -0.1334
v -0.4315 0.0858 -0.0000
v -0.4104 0.0858 0.1334
v -0.3491 0.0858 0.2537
v -0.2537 0.0858 0.3491
v -0.1334 0.0858 0.4104
v -0.0000 0.0858 0.4315
v 0.0000 0.0000 0.4400
v 0.1360 0.0000 0.4185
v 0.2586 0.0000 0.3560
v 0.3560 0.0000 0.2586
v 0.4185 0.0000 0.1360
v 0.4400 0.0000 0.0000
v 0.4185 0.0000 -0.1360
v 0.3560 0.0000 -0.2586
v 0.2586 0.0000 -0.3560
v 0.1360 0.0000 -0.4185
v 0.0000 0.0000 -0.4400
v -0.1360 0.0000 -0.4185
v -0.2586 0.0000 -0.3560
v -0.3560 0.0000 -0.2586
v -0.4185 0.0000 -0.1360
v -0.4400 0.0000 -0.0000
v -0.4185 0.0000 0.1360
v -0.3560 0.0000 0.2586
v -0.2586 0.0000 0.3560
v -0.1360 0.0000 0.4185
v -0.0000 0.0000 0.4400
v 0.0000 -0.0858 0.4315
v 0.1334 -0.0858 0.4104
v 0.2537 -0.0858 0.3491
v 0.3491 -0.0858 0.2537
v 0.4104 -0.0858 0.1334
v 0.4315 -0.0858 0.0000
v 0.4104 -0.0858 -0.1334
v 0.3491 -0.0858 -0.2537
v 0.2537 -0.0858 -0.3491
v 0.1334 -0.0858 -0.4104
v 0.0000 -0.0858 -0.4315
v -0.1334 -0.0858 -0.4104
v -0.2537 -0.0858 -0.3491
v -0.3491 -0.0858 -0.2537
v -0.4104 -0.0858 -0.1334
v -0.4315 -0.0858 -0.0000
v -0.4104 -0.0858 0.1334
v -0.3491 -0.0858 0.2537
v -0.2537 -0.0858 0.3491
v -0.1334 -0.0858 0.4104
v -0.0000 -0.0858 0.4315
v 0.0000 -0.1684 0.4065
v 0.1256 -0.1684 0.3866
v 0.2389 -0.1684 0.3289
v 0.3289 -0.1684 0.2389
v 0.3866 -0.1684 0.1256
v 0.4065 -0.1684 0.0000
v 0.3866 -0.1684 -0.1256
v 0.3289 -0.1684 -0.2389
v 0.2389 -0.1684 -0.3289
v 0.1256 -0.1684 -0.3866
v 0.0000 -0.1684 -0.4065
v -0.1256 -0.1684 -0.3866
v -0.2389 -0.1684 -0.3289
v -0.3289 -0.1684 -0.2389
v -0.3866 -0.1684 -0.1256
v -0.4065 -0.1684 -0.0000
v -0.3866 -0.1684 0.1256
v -0.3289 -0.1684 0.2389
v -0.2389 -0.1684 0.3289
v -0.1256 -0.1684 0.3866
v -0.0000 -0.1684 0.4065
v 0.0000 -0.2445 0.3658
v 0.1131 -0.2445 0.3479
v 0.2150 -0.2445 0.2960
v 0.2960 -0.2445 0.2150
v 0.3479 -0.2445 0.1131
v 0.3658 -0.2445 0.0000
v 0.3479 -0.2445 -0.1131
v 0.2960 -0.2445 -0.2150
v 0.2150 -0.2445 -0.2960
v 0.1131 -0.2445 -0.3479
v 0.0000 -0.2445 -0.3658
v -0.1131 -0.2445 -0.3479
v -0.2150 -0.2445 -0.2960
v -0.2960 -0.2445 -0.2150
v -0.3479 -0.2445 -0.1131
v -0.3658 -0.2445 -0.0000
v -0.3479 -0.2445 0.1131
v -0.2960 -0.2445 0.2150
v -0.2150 -0.2445 0.2960
v -0.1131 -0.2445 0.3479
v -0.0000 -0.2445 0.3658
v 0.0000 -0.3111 0.3111
v 0.0961 -0.3111 0.2959
v 0.1829 -0.3111 0.2517
v 0.2517 -0.3111 0.1829
v 0.2959 -0.3111 0.0961
v 0.3111 -0.3111 0.0000
v 0.2959 -0.3111 -0.0961
v 0.2517 -0.3111 -0.1829
v 0.1829 -0.3111 -0.2517
v 0.0961 -0.3111 -0.2959
v 0.0000 -0.3111 -0.3111
v -0.0961 -0.3111 -0.2959
v -0.1829 -0.3111 -0.2517
v -0.2517 -0.3111 -0.1829
v -0.2959 -0.3111 -0.0961
v -0.3111 -0.3111 -0.0000
v -0.2959 -0.3111 0.0961
v -0.2517 -0.3111 0.1829
v -0.1829 -0.3111 0.2517
v -0.0961 -0.3111 0.2959
v -0.0000 -0.3111 0.3111
v 0.0000 -0.3658 0.2445
v 0.0755 -0.3658 0.2325
v 0.1437 -0.3658 0.1978
v 0.1978 -0.3658 0.1437
v 0.2325 -0.3658 0.0755
v 0.2445 -0.3658 0.0000
v 0.2325 -0.3658 -0.0755
v 0.1978 -0.3658 -0.1437
v 0.1437 -0.3658 -0.1978
v 0.0755 -0.3658 -0.2325
v 0.0000 -0.3658 -0.2445
v -0.0755 -0.3658 -0.2325
v -0.1437 -0.3658 -0.1978
v -0.1978 -0.3658 -0.1437
v -0.2325 -0.3658 -0.0755
v -0.2445 -0.3658 -0.0000
v -0.2325 -0.3658 0.0755
v -0.1978 -0.3658 0.1437
v -0.1437 -0.3658 0.1978
v -0.0755 -0.3658 0.2325
v -0.0000 -0.3658 0.2445
v 0.0000 -0.4065 0.1684
v 0.0520 -0.4065 0.1601
v 0.0990 -0.4065 0.1362
v 0.1362 -0.4065 0.0990
v 0.1601 -0.4065 0.0520
v 0.1684 -0.4065 0.0000
v 0.1601 -0.4065 -0.0520
v 0.1362 -0.4065 -0.0990
v 0.0990 -0.4065 -0.1362
v 0.0520 -0.4065 -0.1601
v 0.0000 -0.4065 -0.1684
v -0.0520 -0.4065 -0.1601
v -0.0990 -0.4065 -0.1362
v -0.1362 -0.4065 -0.0990
v -0.1601 -0.4065 -0.0520
v -0.1684 -0.4065 -0.0000
v -0.1601 -0.4065 0.0520
v -0.1362 -0.4065 0.0990
v -0.0990 -0.4065 0.1362
v -0.0520 -0.4065 0.1601
v -0.0000 -0.4065 0.1684
v 0.0000 -0.4315 0.0858
v 0.0265 -0.4315 0.0816
v 0.0505 -0.4315 0.0694
v 0.0694 -0.4315 0.0505
v 0.0816 -0.4315 0.0265
v 0.0858 -0.4315 0.0000
v 0.0816 -0.4315 -0.0265
v 0.0694 -0.4315 -0.0505
v 0.0505 -0.4315 -0.0694
v 0.0265 -0.4315 -0.0816
v 0.0000 -0.4315 -0.0858
v -0.0265 -0.4315 -0.0816
v -0.0505 -0.4315 -0.0694
v -0.0694 -0.4315 -0.0505
v -0.0816 -0.4315 -0.0265
v -0.0858 -0.4315 -0.0000
v -0.0816 -0.4315 0.0265
v -0.0694 -0.4315 0.0505
v -0.0505 -0.4315 0.0694
v -0.0265 -0.4315 0.0816
v -0.0000 -0.4315 0.0858
v 0.0000 -0.4400 0.0000
v 0.0000 -0.4400 0.0000
v 0.0000 -0.4400 0.0000
v 0.0000 -0.4400 0.0000
v 0.0000 -0.4400 0.0000
v 0.0000 -0.4400 0.0000
v 0.0000 -0.4400 -0.0000
v 0.0000 -0.4400 -0.0000
v 0.0000 -0.4400 -0.0000
v 0.0000 -0.4400 -0.0000
v 0.0000 -0.4400 -0.0000
v -0.0000 -0.4400 -0.0000
v -0.0000 -0.4400 -0.0000
v -0.0000 -0.4400 -0.0000
v -0.0000 -0.4400 -0.0000
v -0.0000 -0.4400 -0.0000
v -0.0000 -0.4400 0.0000
v -0.0000 -0.4400 0.0000
v -0.0000 -0.4400 0.0000
v -0.0000 -0.4400 0.0000
v -0.0000 -0.4400 0.0000
vt 0.0000 1.0000
vt 0.0500 1.0000
vt 0.1000 1.0000
vt 0.1500 1.0000
vt 0.2000 1.0000
vt 0.2500 1.0000
vt 0.3000 1.0000
vt 0.3500 1.0000
vt 0.4000 1.0000
vt 0.4500 1.0000
vt 0.5000 1.0000
vt 0.5500 1.0000
vt 0.6000 1.0000
vt 0.6500 1.0000
vt 0.7000 1.0000
vt 0.7500 1.0000
vt 0.8000 1.0000
vt 0.8500 1.0000
vt 0.9000 1.0000
vt 0.9500 1.0000
vt 1.0000 1.0000
vt 0.0000 0.9375
vt 0.0500 0.9375
vt 0.1000 0.9375
vt 0.1500 0.9375
vt 0.2000 0.9375
vt 0.2500 0.9375
vt 0.3000 0.9375
vt 0.3500 0.9375
vt 0.4000 0.9375
vt 0.4500 0.9375
vt 0.5000 0.9375
vt 0.5500 0.9375
vt 0.6000 0.9375
vt 0.6500 0.9375
vt 0.7000 0.9375
vt 0.7500 0.9375
vt 0.8000 0.9375
vt 0.8500 0.9375
vt 0.9000 0.9375
vt 0.9500 0.9375
vt 1.0000 0.9375
vt 0.0000 0.8750
vt 0.0500 0.8750
vt 0.1000 0.8750
vt 0.1500 0.8750
vt 0.2000 0.8750
vt 0.2500 0.8750
vt 0.3000 0.8750
vt 0.3500 0.8750
vt 0.4000 0.8750
vt 0.4500 0.8750
vt 0.5000 0.8750
vt 0.5500 0.8750
vt 0.6000 0.8750
vt 0.6500 0.8750
vt 0.7000 0.8750
vt 0.7500 0.8750
vt 0.8000 0.8750
vt 0.8500 0.8750
vt 0.9000 0.8750
vt 0.9500 0.8750
vt 1.0000 0.8750
vt 0.0000 0.8125
vt 0.0500 0.8125
vt 0.1000 0.8125
vt 0.1500 0.8125
vt 0.2000 0.8125
vt 0.2500 0.8125
vt 0.3000 0.8125
vt 0.3500 0.8125
vt 0.4000 0.8125
vt 0.4500 0.8125
vt 0.5000 0.8125
vt 0.5500 0.8125
vt 0.6000 0.8125
vt 0.6500 0.8125
vt 0.7000 0.8125
vt 0.7500 0.8125
vt 0.8000 0.8125
vt 0.8500 0.8125
vt 0.9000 0.8125
vt 0.9500 0.8125
vt 1.0000 0.8125
vt 0.0000 0.7500
vt 0.0500 0.7500
vt 0.1000 0.7500
vt 0.1500 0.7500
vt 0.2000 0.7500
vt 0.2500 0.7500
vt 0.3000 0.7500
vt 0.3500 0.7500
vt 0.4000 0.7500
vt 0.4500 0.7500
vt 0.5000 0.7500
vt 0.5500 0.7500
vt 0.6000 0.7500
vt 0.6500 0.7500
vt 0.7000 0.7500
vt 0.7500 0.7500
vt 0.8000 0.7500
vt 0.8500 0.7500
vt 0.9000 0.7500
vt 0.9500 0.7500
vt 1.0000 0.7500
vt 0.0000 0.6875
vt 0.0500 0.6875
vt 0.1000 0.6875
vt 0.1500 0.6875
vt 0.2000 0.6875
vt 0.2500 0.6875
vt 0.3000 0.6875
vt 0.3500 0.6875
vt 0.4000 0.6875
vt 0.4500 0.6875
vt 0.5000 0.6875
vt 0.5500 0.6875
vt 0.6000 0.6875
vt 0.6500 0.6875
vt 0.7000 0.6875
vt 0.7500 0.6875
vt 0.8000 0.6875
vt 0.8500 0.6875
vt 0.9000 0.6875
vt 0.9500 0.6875
vt 1.0000 0.6875
vt 0.0000 0.6250
vt 0.0500 0.6250
vt 0.1000 0.6250
vt 0.1500 0.6250
vt 0.2000 0.6250
vt 0.2500 0.6250
vt 0.3000 0.6250
vt 0.3500 0.6250
vt 0.4000 0.6250
vt 0.4500 0.6250
vt 0.5000 0.6250
vt 0.5500 0.6250
vt 0.6000 0.6250
vt 0.6500 0.6250
vt 0.7000 0.6250
vt 0.7500 0.6250
vt 0.8000 0.6250
vt 0.8500 0.6250
vt 0.9000 0.6250
vt 0.9500 0.6250
vt 1.0000 0.6250
vt 0.0000 0.5625
vt 0.0500 0.5625
vt 0.1000 0.5625
vt 0.1500 0.5625
vt 0.2000 0.5625
vt 0.2500 0.5625
vt 0.3000 0.5625
vt 0.3500 0.5625
vt 0.4000 0.5625
vt 0.4500 0.5625
vt 0.5000 0.5625
vt 0.5500 0.5625
vt 0.6000 0.5625
vt 0.6500 0.5625
vt 0.7000 0.5625
vt 0.7500 0.5625
vt 0.8000 0.5625
vt 0.8500 0.5625
vt 0.9000 0.5625
vt 0.9500 0.5625
vt 1.0000 0.5625
vt 0.0000 0.5000
vt 0.0500 0.5000
vt 0.1000 0.5000
vt 0.1500 0.5000
vt 0.2000 0.5000
vt 0.2500 0.5000
vt 0.3000 0.5000
vt 0.3500 0.5000
vt 0.4000 0.5000
vt 0.4500 0.5000
vt 0.5000 0.5000
vt 0.5500 0.5000
vt 0.6000 0.5000
vt 0.6500 0.5000
vt 0.7000 0.5000
vt 0.7500 0.5000
vt 0.8000 0.5000
vt 0.8500 0.5000
vt 0.9000 0.5000
vt 0.9500 0.5000
vt 1.0000 0.5000
vt 0.0000 0.4375
vt 0.0500 0.4375
vt 0.1000 0.4375
vt 0.1500 0.4375
vt 0.2000 0.4375
vt 0.2500 0.4375
vt 0.3000 0.4375
vt 0.3500 0.4375
vt 0.4000 0.4375
vt 0.4500 0.4375
vt 0.5000 0.4375
vt 0.5500 0.4375
vt 0.6000 0.4375
vt 0.6500 0.4375
vt 0.7000 0.4375
vt 0.7500 0.4375
vt 0.8000 0.4375
vt 0.8500 0.4375
vt 0.9000 0.4375
vt 0.9500 0.4375
vt 1.0000 0.4375
vt 0.0000 0.3750
vt 0.0500 0.3750
vt 0.1000 0.3750
vt 0.1500 0.3750
vt 0.2000 0.3750
vt 0.2500 0.3750
vt 0.3000 0.3750
vt 0.3500 0.3750
vt 0.4000 0.3750
vt 0.4500 0.3750
vt 0.5000 0.3750
vt 0.5500 0.3750
vt 0.6000 0.3750
vt 0.6500 0.3750
vt 0.7000 0.3750
vt 0.7500 0.3750
vt 0.8000 0.3750
vt 0.8500 0.3750
vt 0.9000 0.3750
vt 0.9500 0.3750
vt 1.0000 0.3750
vt 0.0000 0.3125
vt 0.0500 0.3125
vt 0.1000 0.3125
vt 0.1500 0.3125
vt 0.2000 0.3125
vt 0.2500 0.3125
vt 0.3000 0.3125
vt 0.3500 0.3125
vt 0.4000 0.3125
vt 0.4500 0.3125
vt 0.5000 0.3125
vt 0.5500 0.3125
vt 0.6000 0.3125
vt 0.6500 0.3125
vt 0.7000 0.3125
vt 0.7500 0.3125
vt 0.8000 0.3125
vt 0.8500 0.3125
vt 0.9000 0.3125
vt 0.9500 0.3125
vt 1.0000 0.3125
vt 0.0000 0.2500
vt 0.0500 0.2500
vt 0.1000 0.2500
vt 0.1500 0.2500
vt 0.2000 0.2500
vt 0.2500 0.2500
vt 0.3000 0.2500
vt 0.3500 0.2500
vt 0.4000 0.2500
vt 0.4500 0.2500
vt 0.5000 0.2500
vt 0.5500 0.2500
vt 0.6000 0.2500
vt 0.6500 0.2500
vt 0.7000 0.2500
vt 0.7500 0.2500
vt 0.8000 0.2500
vt 0.8500 0.2500
vt 0.9000 0.2500
vt 0.9500 0.2500
vt 1.0000 0.2500
vt 0.0000 0.1875
vt 0.0500 0.1875
vt 0.1000 0.1875
vt 0.1500 0.1875
vt 0.2000 0.1875
vt 0.2500 0.1875
vt 0.3000 0.1875
vt 0.3500 0.1875
vt 0.4000 0.1875
vt 0.4500 0.1875
vt 0.5000 0.1875
vt 0.5500 0.1875
vt 0.6000 0.1875
vt 0.6500 0.1875
vt 0.7000 0.1875
vt 0.7500 0.1875
vt 0.8000 0.1875
vt 0.8500 0.1875
vt 0.9000 0.1875
vt 0.9500 0.1875
vt 1.0000 0.1875
vt 0.0000 0.1250
vt 0.0500 0.1250
vt 0.1000 0.1250
vt 0.1500 0.1250
vt 0.2000 0.1250
vt 0.2500 0.1250
vt 0.3000 0.1250
vt 0.3500 0.1250
vt 0.4000 0.1250
vt 0.4500 0.1250
vt 0.5000 0.1250
vt 0.5500 0.1250
vt 0.6000 0.1250
vt 0.6500 0.1250
vt 0.7000 0.1250
vt 0.7500 0.1250
vt 0.8000 0.1250
vt 0.8500 0.1250
vt 0.9000 0.1250
vt 0.9500 0.1250
vt 1.0000 0.1250
vt 0.0000 0.0625
vt 0.0500 0.0625
vt 0.1000 0.0625
vt 0.1500 0.0625
vt 0.2000 0.0625
vt 0.2500 0.0625
vt 0.3000 0.0625
vt 0.3500 0.0625
vt 0.4000 0.0625
vt 0.4500 0.0625
vt 0.5000 0.0625
vt 0.5500 0.0625
vt 0.6000 0.0625
vt 0.6500 0.0625
vt 0.7000 0.0625
vt 0.7500 0.0625
vt 0.8000 0.0625
vt 0.8500 0.0625
vt 0.9000 0.0625
vt 0.9500 0.0625
vt 1.0000 0.0625
vt 0.0000 0.0000
vt 0.0500 0.0000
vt 0.1000 0.0000
vt 0.1500 0.0000
vt 0.2000 0.0000
vt 0.2500 0.0000
vt 0.3000 0.0000
vt 0.3500 0.0000
vt 0.4000 0.0000
vt 0.4500 0.0000
vt 0.5000 0.0000
vt 0.5500 0.0000
vt 0.6000 0.0000
vt 0.6500 0.0000
vt 0.7000 0.0000
vt 0.7500 0.0000
vt 0.8000 0.0000
vt 0.8500 0.0000
vt 0.9000 0.0000
vt 0.9500 0.0000
vt 1.0000 0.0000
vn 0.0000 1.0000 0.0000
vn 0.0000 1.0000 0.0000
vn 0.0000 1.0000 0.0000
vn 0.0000 1.0000 0.0000
vn 0.0000 1.0000 0.0000
vn 0.0000 1.0000 0.0000
vn 0.0000 1.0000 -0.0000
vn 0.0000 1.0000 -0.0000
vn 0.0000 1.0000 -0.0000
vn 0.0000 1.0000 -0.0000
vn 0.0000 1.0000 -0.0000
vn -0.0000 1.0000 -0.0000
vn -0.0000 1.0000 -0.0000
vn -0.0000 1.0000 -0.0000
vn -0.0000 1.0000 -0.0000
vn -0.0000 1.0000 -0.0000
vn -0.0000 1.0000 0.0000
vn -0.0000 1.0000 0.0000
vn -0.0000 1.0000 0.0000
vn -0.0000 1.0000 0.0000
vn -0.0000 1.0000 0.0000
vn 0.0000 0.9808 0.1951
vn 0.0603 0.9808 0.1855
vn 0.1147 0.9808 0.1578
vn 0.1578 0.9808 0.1147
vn 0.1855 0.9808 0.0603
vn 0.1951 0.9808 0.0000
vn 0.1855 0.9808 -0.0603
vn 0.1578 0.9808 -0.1147
vn 0.1147 0.9808 -0.1578
vn 0.0603 0.9808 -0.1855
vn 0.0000 0.9808 -0.1951
vn -0.0603 0.9808 -0.1855
vn -0.1147 0.9808 -0.1578
vn -0.1578 0.9808 -0.1147
vn -0.1855 0.9808 -0.0603
vn -0.1951 0.9808 -0.0000
vn -0.1855 0.9808 0.0603
vn -0.1578 0.9808 0.1147
vn -0.1147 0.9808 0.1578
vn -0.0603 0.9808 0.1855
vn -0.0000 0.9808 0.1951
vn 0.0000 0.9239 0.3827
vn 0.1183 0.9239 0.3640
vn 0.2249 0.9239 0.3096
vn 0.3096 0.9239 0.2249
vn 0.3640 0.9239 0.1183
vn 0.3827 0.9239 0.0000
vn 0.3640 0.9239 -0.1183
vn 0.3096 0.9239 -0.2249
vn 0.2249 0.9239 -0.3096
vn 0.1183 0.9239 -0.3640
vn 0.0000 0.9239 -0.3827
vn -0.1183 0.9239 -0.3640
vn -0.2249 0.9239 -0.3096
vn -0.3096 0.9239 -0.2249
vn -0.3640 0.9239 -0.1183
vn -0.3827 0.9239 -0.0000
vn -0.3640 0.9239 0.1183
vn -0.3096 0.9239 0.2249
vn -0.2249 0.9239 0.3096
vn -0.1183 0.9239 0.3640
vn -0.0000 0.9239 0.3827
vn 0.0000 0.8315 0.5556
vn 0.1717 0.8315 0.5284
vn 0.3266 0.8315 0.4495
vn 0.4495 0.8315 0.3266
vn 0.5284 0.8315 0.1717
vn 0.5556 0.8315 0.0000
vn 0.5284 0.8315 -0.1717
vn 0.4495 0.8315 -0.3266
vn 0.3266 0.8315 -0.4495
vn 0.1717 0.8315 -0.5284
vn 0.0000 0.8315 -0.5556
vn -0.1717 0.8315 -0.5284
vn -0.3266 0.8315 -0.4495
vn -0.4495 0.8315 -0.3266
vn -0.5284 0.8315 -0.1717
vn -0.5556 0.8315 -0.0000
vn -0.5284 0.8315 0.1717
vn -0.4495 0.8315 0.3266
vn -0.3266 0.8315 0.4495
vn -0.1717 0.8315 0.5284
vn -0.0000 0.8315 0.5556
vn 0.0000 0.7071 0.7071
vn 0.2185 0.7071 0.6725
vn 0.4156 0.7071 0.5721
vn 0.5721 0.7071 0.4156
vn 0.6725 0.7071 0.2185
vn 0.7071 0.7071 0.0000
vn 0.6725 0.7071 -0.2185
vn 0.5721 0.7071 -0.4156
vn 0.4156 0.7071 -0.5721
vn 0.2185 0.7071 -0.6725
vn 0.0000 0.7071 -0.7071
vn -0.2185 0.7071 -0.6725
vn -0.4156 0.7071 -0.5721
vn -0.5721 0.7071 -0.4156
vn -0.6725 0.7071 -0.2185
vn -0.7071 0.7071 -0.0000
vn -0.6725 0.7071 0.2185
vn -0.5721 0.7071 0.4156
vn -0.4156 0.7071 0.5721
vn -0.2185 0.7071 0.6725
vn -0.0000 0.7071 0.7071
vn 0.0000 0.5556 0.8315
vn 0.2569 0.5556 0.7908
vn 0.4887 0.5556 0.6727
vn 0.6727 0.5556 0.4887
vn 0.7908 0.5556 0.2569
vn 0.8315 0.5556 0.0000
vn 0.7908 0.5556 -0.2569
vn 0.6727 0.5556 -0.4887
vn 0.4887 0.5556 -0.6727
vn 0.2569 0.5556 -0.7908
vn 0.0000 0.5556 -0.8315
vn -0.2569 0.5556 -0.7908
vn -0.4887 0.5556 -0.6727
vn -0.6727 0.5556 -0.4887
vn -0.7908 0.5556 -0.2569
vn -0.8315 0.5556 -0.0000
vn -0.7908 0.5556 0.2569
vn -0.6727 0.5556 0.4887
vn -0.4887 0.5556 0.6727
vn -0.2569 0.5556 0.7908
vn -0.0000 0.5556 0.8315
vn 0.0000 0.3827 0.9239
vn 0.2855 0.3827 0.8787
vn 0.5430 0.3827 0.7474
vn 0.7474 0.3827 0.5430
vn 0.8787 0.3827 0.2855
vn 0.9239 0.3827 0.0000
vn 0.8787 0.3827 -0.2855
vn 0.7474 0.3827 -0.5430
vn 0.5430 0.3827 -0.7474
vn 0.2855 0.3827 -0.8787
vn 0.0000 0.3827 -0.9239
vn -0.2855 0.3827 -0.8787
vn -0.5430 0.3827 -0.7474
vn -0.7474 0.3827 -0.5430
vn -0.8787 0.3827 -0.2855
vn -0.9239 0.3827 -0.0000
vn -0.8787 0.3827 0.2855
vn -0.7474 0.3827 0.5430
vn -0.5430 0.3827 0.7474
vn -0.2855 0.3827 0.8787
vn -0.0000 0.3827 0.9239
vn 0.0000 0.1951 0.9808
vn 0.3031 0.1951 0.9328
vn 0.5765 0.1951 0.7935
vn 0.7935 0.1951 0.5765
vn 0.9328 0.1951 0.3031
vn 0.9808 0.1951 0.0000
vn 0.9328 0.1951 -0.3031
vn 0.7935 0.1951 -0.5765
vn 0.5765 0.1951 -0.7935
vn 0.3031 0.1951 -0.9328
vn 0.0000 0.1951 -0.9808
vn -0.3031 0.1951 -0.9328
vn -0.5765 0.1951 -0.7935
vn -0.7935 0.1951 -0.5765
vn -0.9328 0.1951 -0.3031
vn -0.9808 0.1951 -0.0000
vn -0.9328 0.1951 0.3031
vn -0.7935 0.1951 0.5765
vn -0.5765 0.1951 0.7935
vn -0.3031 0.1951 0.9328
vn -0.0000 0.1951 0.9808
vn 0.0000 0.0000 1.0000
vn 0.3090 0.0000 0.9511
vn 0.5878 0.0000 0.8090
vn 0.8090 0.0000 0.5878
vn 0.9511 0.0000 0.3090
vn 1.0000 0.0000 0.0000
vn 0.9511 0.0000 -0.3090
vn 0.8090 0.0000 -0.5878
vn 0.5878 0.0000 -0.8090
vn 0.3090 0.0000 -0.9511
vn 0.0000 0.0000 -1.0000
vn -0.3090 0.0000 -0.9511
vn -0.5878 0.0000 -0.8090
vn -0.8090 0.0000 -0.5878
vn -0.9511 0.0000 -0.3090
vn -1.0000 0.0000 -0.0000
vn -0.9511 0.0000 0.3090
vn -0.8090 0.0000 0.5878
vn -0.5878 0.0000 0.8090
vn -0.3090 0.0000 0.9511
vn -0.0000 0.0000 1.0000
vn 0.0000 -0.1951 0.9808
vn 0.3031 -0.1951 0.9328
vn 0.5765 -0.1951 0.7935
vn 0.7935 -0.1951 0.5765
vn 0.9328 -0.1951 0.3031
vn 0.9808 -0.1951 0.0000
vn 0.9328 -0.1951 -0.3031
vn 0.7935 -0.1951 -0.5765
vn 0.5765 -0.1951 -0.7935
vn 0.3031 -0.1951 -0.9328
vn 0.0000 -0.1951 -0.9808
vn -0.3031 -0.1951 -0.9328
vn -0.5765 -0.1951 -0.7935
vn -0.7935 -0.1951 -0.5765
vn -0.9328 -0.1951 -0.3031
vn -0.9808 -0.1951 -0.0000
vn -0.9328 -0.1951 0.3031
vn -0.7935 -0.1951 0.5765
vn -0.5765 -0.1951 0.7935
vn -0.3031 -0.1951 0.9328
vn -0.0000 -0.1951 0.9808
vn 0.0000 -0.3827 0.9239
vn 0.2855 -0.3827 0.8787
vn 0.5430 -0.3827 0.7474
vn 0.7474 -0.3827 0.5430
vn 0.8787 -0.3827 0.2855
vn 0.9239 -0.3827 0.0000
vn 0.8787 -0.3827 -0.2855
vn 0.7474 -0.3827 -0.5430
vn 0.5430 -0.3827 -0.7474
vn 0.2855 -0.3827 -0.8787
vn 0.0000 -0.3827 -0.9239
vn -0.2855 -0.3827 -0.8787
vn -0.5430 -0.3827 -0.7474
vn -0.7474 -0.3827 -0.5430
vn -0.8787 -0.3827 -0.2855
vn -0.9239 -0.3827 -0.0000
vn -0.8787 -0.3827 0.2855
vn -0.7474 -0.3827 0.5430
vn -0.5430 -0.3827 0.7474
vn -0.2855 -0.3827 0.8787
vn -0.0000 -0.3827 0.9239
vn 0.0000 -0.5556 0.8315
vn 0.2569 -0.5556 0.7908
vn 0.4887 -0.5556 0.6727
vn 0.6727 -0.5556 0.4887
vn 0.7908 -0.5556 0.2569
vn 0.8315 -0.5556 0.0000
vn 0.7908 -0.5556 -0.2569
vn 0.6727 -0.5556 -0.4887
vn 0.4887 -0.5556 -0.6727
vn 0.2569 -0.5556 -0.7908
vn 0.0000 -0.5556 -0.8315
vn -0.2569 -0.5556 -0.7908
vn -0.4887 -0.5556 -0.6727
vn -0.6727 -0.5556 -0.4887
vn -0.7908 -0.5556 -0.2569
vn -0.8315 -0.5556 -0.0000
vn -0.7908 -0.5556 0.2569
vn -0.6727 -0.5556 0.4887
vn -0.4887 -0.5556 0.6727
vn -0.2569 -0.5556 0.7908
vn -0.0000 -0.5556 0.8315
vn 0.0000 -0.7071 0.7071
vn 0.2185 -0.7071 0.6725
vn 0.4156 -0.7071 0.5721
vn 0.5721 -0.7071 0.4156
vn 0.6725 -0.7071 0.2185
vn 0.7071 -0.7071 0.0000
vn 0.6725 -0.7071 -0.2185
vn 0.5721 -0.7071 -0.4156
vn 0.4156 -0.7071 -0.5721
vn 0.2185 -0.7071 -0.6725
vn 0.0000 -0.7071 -0.7071
vn -0.2185 -0.7071 -0.6725
vn -0.4156 -0.7071 -0.5721
vn -0.5721 -0.7071 -0.4156
vn -0.6725 -0.7071 -0.2185
vn -0.7071 -0.7071 -0.0000
vn -0.6725 -0.7071 0.2185
vn -0.5721 -0.7071 0.4156
vn -0.4156 -0.7071 0.5721
vn -0.2185 -0.7071 0.6725
vn -0.0000 -0.7071 0.7071
vn 0.0000 -0.8315 0.5556
vn 0.1717 -0.8315 0.5284
vn 0.3266 -0.8315 0.4495
vn 0.4495 -0.8315 0.3266
vn 0.5284 -0.8315 0.1717
vn 0.5556 -0.8315 0.0000
vn 0.5284 -0.8315 -0.1717
vn 0.4495 -0.8315 -0.3266
vn 0.3266 -0.8315 -0.4495
vn 0.1717 -0.8315 -0.5284
vn 0.0000 -0.8315 -0.5556
vn -0.1717 -0.8315 -0.5284
vn -0.3266 -0.8315 -0.4495
vn -0.4495 -0.8315 -0.3266
vn -0.5284 -0.8315 -0.1717
vn -0.5556 -0.8315 -0.0000
vn -0.5284 -0.8315 0.1717
vn -0.4495 -0.8315 0.3266
vn -0.3266 -0.8315 0.4495
vn -0.1717 -0.8315 0.5284
vn -0.0000 -0.8315 0.5556
vn 0.0000 -0.9239 0.3827
vn 0.1183 -0.9239 0.3640
vn 0.2249 -0.9239 0.3096
vn 0.3096 -0.9239 0.2249
vn 0.3640 -0.9239 0.1183
vn 0.3827 -0.9239 0.0000
vn 0.3640 -0.9239 -0.1183
vn 0.3096 -0.9239 -0.2249
vn 0.2249 -0.9239 -0.3096
vn 0.1183 -0.9239 -0.3640
vn 0.0000 -0.9239 -0.3827
vn -0.1183 -0.9239 -0.3640
vn -0.2249 -0.9239 -0.3096
vn -0.3096 -0.9239 -0.2249
vn -0.3640 -0.9239 -0.1183
vn -0.3827 -0.9239 -0.0000
vn -0.3640 -0.9239 0.1183
vn -0.3096 -0.9239 0.2249
vn -0.2249 -0.9239 0.3096
vn -0.1183 -0.9239 0.3640
vn -0.0000 -0.9239 0.3827
vn 0.0000 -0.9808 0.1951
vn 0.0603 -0.9808 0.1855
vn 0.1147 -0.9808 0.1578
vn 0.1578 -0.9808 0.1147
vn 0.1855 -0.9808 0.0603
vn 0.1951 -0.9808 0.0000
vn 0.1855 -0.9808 -0.0603
vn 0.1578 -0.9808 -0.1147
vn 0.1147 -0.9808 -0.1578
vn 0.0603 -0.9808 -0.1855
vn 0.0000 -0.9808 -0.1951
vn -0.0603 -0.9808 -0.1855
vn -0.1147 -0.9808 -0.1578
vn -0.1578 -0.9808 -0.1147
vn -0.1855 -0.9808 -0.0603
vn -0.1951 -0.9808 -0.0000
vn -0.1855 -0.9808 0.0603
vn -0.1578 -0.9808 0.1147
vn -0.1147 -0.9808 0.1578
vn -0.0603 -0.9808 0.1855
vn -0.0000 -0.9808 0.1951
vn 0.0000 -1.0000 0.0000
vn 0.0000 -1.0000 0.0000
vn 0.0000 -1.0000 0.0000
vn 0.0000 -1.0000 0.0000
vn 0.0000 -1.0000 0.0000
vn 0.0000 -1.0000 0.0000
vn 0.0000 -1.0000 -0.0000
vn 0.0000 -1.0000 -0.0000
vn 0.0000 -1.0000 -0.0000
vn 0.0000 -1.0000 -0.0000
vn 0.0000 -1.0000 -0.0000
vn -0.0000 -1.0000 -0.0000
vn -0.0000 -1.0000 -0.0000
vn -0.0000 -1.0000 -0.0000
vn -0.0000 -1.0000 -0.0000
vn -0.0000 -1.0000 -0.0000
vn -0.0000 -1.0000 0.0000
vn -0.0000 -1.0000 0.0000
vn -0.0000 -1.0000 0.0000
vn -0.0000 -1.0000 0.0000
vn -0.0000 -1.0000 0.0000
f 1/1/1 22/22/22 23/23/23
f 1/1/1 23/23/23 2/2/2
f 2/2/2 23/23/23 24/24/24
f 2/2/2 24/24/24 3/3/3
f 3/3/3 24/24/24 25/25/25
f 3/3/3 25/25/25 4/4/4
f 4/4/4 25/25/25 26/26/26
f 4/4/4 26/26/26 5/5/5
f 5/5/5 26/26/26 27/27/27
f 5/5/5 27/27/27 6/6/6
f 6/6/6 27/27/27 28/28/28
f 6/6/6 28/28/28 7/7/7
f 7/7/7 28/28/28 29/29/29
f 7/7/7 29/29/29 8/8/8
f 8/8/8 29/29/29 30/30/30
f 8/8/8 30/30/30 9/9/9
f 9/9/9 30/30/30 31/31/31
f 9/9/9 31/31/31 10/10/10
f 10/10/10 31/31/31 32/32/32
f 10/10/10 32/32/32 11/11/11
f 11/11/11 32/32/32 33/33/33
f 11/11/11 33/33/33 12/12/12
f 12/12/12 33/33/33 34/34/34
f 12/12/12 34/34/34 13/13/13
f 13/13/13 34/34/34 35/35/35
f 13/13/13 35/35/35 14/14/14
f 14/14/14 35/35/35 36/36/36
f 14/14/14 36/36/36 15/15/15
f 15/15/15 36/36/36 37/37/37
f 15/15/15 37/37/37 16/16/16
f 16/16/16 37/37/37 38/38/38
f 16/16/16 38/38/38 17/17/17
f 17/17/17 38/38/38 39/39/39
f 17/17/17 39/39/39 18/18/18
f 18/18/18 39/39/39 40/40/40
f 18/18/18 40/40/40 19/19/19
f 19/19/19 40/40/40 41/41/41
f 19/19/19 41/41/41 20/20/20
f 20/20/20 41/41/41 42/42/42
f 20/20/20 42/42/42 21/21/21
f 22/22/22 43/43/43 44/44/44
f 22/22/22 44/44/44 23/23/23
f 23/23/23 44/44/44 45/45/45
f 23/23/23 45/45/45 24/24/24
f 24/24/24 45/45/45 46/46/46
f 24/24/24 46/46/46 25/25/25
f 25/25/25 46/46/46 47/47/47
f 25/25/25 47/47/47 26/26/26
f 26/26/26 47/47/47 48/48/48
f 26/26/26 48/48/48 27/27/27
f 27/27/27 48/48/48 49/49/49
f 27/27/27 49/49/49 28/28/28
f 28/28/28 49/49/49 50/50/50
f 28/28/28 50/50/50 29/29/29
f 29/29/29 50/50/50 51/51/51
f 29/29/29 51/51/51 30/30/30
f 30/30/30 51/51/51 52/52/52
f 30/30/30 52/52/52 31/31/31
f 31/31/31 52/52/52 53/53/53
f 31/31/31 53/53/53 32/32/32
f 32/32/32 53/53/53 54/54/54
f 32/32/32 54/54/54 33/33/33
f 33/33/33 54/54/54 55/55/55
f 33/33/33 55/55/55 34/34/34
f 34/34/34 55/55/55 56/56/56
f 34/34/34 56/56/56 35/35/35
f 35/35/35 56/56/56 57/57/57
f 35/35/35 57/57/57 36/36/36
f 36/36/36 57/57/57 58/58/58
f 36/36/36 58/58/58 37/37/37
f 37/37/37 58/58/58 59/59/59
f 37/37/37 59/59/59 38/38/38
f 38/38/38 59/59/59 60/60/60
f 38/38/38 60/60/60 39/39/39
f 39/39/39 60/60/60 61/61/61
f 39/39/39 61/61/61 40/40/40
f 40/40/40 61/61/61 62/62/62
f 40/40/40 62/62/62 41/41/41
f 41/41/41 62/62/62 63/63/63
f 41/41/41 63/63/63 42/42/42
f 43/43/43 64/64/64 65/65/65
f 43/43/43 65/65/65 44/44/44
f 44/44/44 65/65/65 66/66/66
f 44/44/44 66/66/66 45/45/45
f 45/45/45 66/66/66 67/67/67
f 45/45/45 67/67/67 46/46/46
f 46/46/46 67/67/67 68/68/68
f 46/46/46 68/68/68 47/47/47
f 47/47/47 68/68/68 69/69/69
f 47/47/47 69/69/69 48/48/48
f 48/48/48 69/69/69 70/70/70
f 48/48/48 70/70/70 49/49/49
f 49/49/49 70/70/70 71/71/71
f 49/49/49 71/71/71 50/50/50
f 50/50/50 71/71/71 72/72/72
f 50/50/50 72/72/72 51/51/51
f 51/51/51 72/72/72 73/73/73
f 51/51/51 73/73/73 52/52/52
f 52/52/52 73/73/73 74/74/74
f 52/52/52 74/74/74 53/53/53
f 53/53/53 74/74/74 75/75/75
f 53/53/53 75/75/75 54/54/54
f 54/54/54 75/75/75 76/76/76
f 54/54/54 76/76/76 55/55/55
f 55/55/55 76/76/76 77/77/77
f 55/55/55 77/77/77 56/56/56
f 56/56/56 77/77/77 78/78/78
f 56/56/56 78/78/78 57/57/57
f 57/57/57 78/78/78 79/79/79
f 57/57/57 79/79/79 58/58/58
f 58/58/58 79/79/79 80/80/80
f 58/58/58 80/80/80 59/59/59
f 59/59/59 80/80/80 81/81/81
f 59/59/59 81/81/81 60/60/60
f 60/60/60 81/81/81 82/82/82
f 60/60/60 82/82/82 61/61/61
f 61/61/61 82/82/82 83/83/83
f 61/61/61 83/83/83 62/62/62
f 62/62/62 83/83/83 84/84/84
f 62/62/62 84/84/84 63/63/63
f 64/64/64 85/85/85 86/86/86
f 64/64/64 86/86/86 65/65/65
f 65/65/65 86/86/86 87/87/87
f 65/65/65 87/87/87 66/66/66
f 66/66/66 87/87/87 88/88/88
f 66/66/66 88/88/88 67/67/67
f 67/67/67 88/88/88 89/89/89
f 67/67/67 89/89/89 68/68/68
f 68/68/68 89/89/89 90/90/90
f 68/68/68 90/90/90 69/69/69
f 69/69/69 90/90/90 91/91/91
f 69/69/69 91/91/91 70/70/70
f 70/70/70 91/91/91 92/92/92
f 70/70/70 92/92/92 71/71/71
f 71/71/71 92/92/92 93/93/93
f 71/71/71 93/93/93 72/72/72
f 72/72/72 93/93/93 94/94/94
f 72/72/72 94/94/94 73/73/73
f 73/73/73 94/94/94 95/95/95
f 73/73/73 95/95/95 74/74/74
f 74/74/74 95/95/95 96/96/96
f 74/74/74 96/96/96 75/75/75
f 75/75/75 96/96/96 97/97/97
f 75/75/75 97/97/97 76/76/76
f 76/76/76 97/97/97 98/98/98
f 76/76/76 98/98/98 77/77/77
f 77/77/77 98/98/98 99/99/99
f 77/77/77 99/99/99 78/78/78
f 78/78/78 99/99/99 100/100/100
f 78/78/78 100/100/100 79/79/79
f 79/79/79 100/100/100 101/101/101
f 79/79/79 101/101/101 80/80/80
f 80/80/80 101/101/101 102/102/102
f 80/80/80 102/102/102 81/81/81
f 81/81/81 102/102/102 103/103/103
f 81/81/81 103/103/103 82/82/82
f 82/82/82 103/103/103 104/104/104
f 82/82/82 104/104/104 83/83/83
f 83/83/83 104/104/104 105/105/105
f 83/83/83 105/105/105 84/84/84
f 85/85/85 106/106/106 107/107/107
f 85/85/85 107/107/107 86/86/86
f 86/86/86 107/107/107 108/108/108
f 86/86/86 108/108/108 87/87/87
f 87/87/87 108/108/108 109/109/109
f 87/87/87 109/109/109 88/88/88
f 88/88/88 109/109/109 110/110/110
f 88/88/88 110/110/110 89/89/89
f 89/89/89 110/110/110 111/111/111
f 89/89/89 111/111/111 90/90/90
f 90/90/90 111/111/111 112/112/112
f 90/90/90 112/112/112 91/91/91
f 91/91/91 112/112/112 113/113/113
f 91/91/91 113/113/113 92/92/92
f 92/92/92 113/113/113 114/114/114
f 92/92/92 114/114/114 93/93/93
f 93/93/93 114/114/114 115/115/115
f 93/93/93 115/115/115 94/94/94
f 94/94/94 115/115/115 116/116/116
f 94/94/94 116/116/116 95/95/95
f 95/95/95 116/116/116 117/117/117
f 95/95/95 117/117/117 96/96/96
f 96/96/96 117/117/117 118/118/118
f 96/96/96 118/118/118 97/97/97
f 97/97/97 118/118/118 119/119/119
f 97/97/97 119/119/119 98/98/98
f 98/98/98 119/119/119 120/120/120
f 98/98/98 120/120/120 99/99/99
f 99/99/99 120/120/120 121/121/121
f 99/99/99 121/121/121 100/100/100
f 100/100/100 121/121/121 122/122/122
f 100/100/100 122/122/122 101/101/101
f 101/101/101 122/122/122 123/123/123
f 101/101/101 123/123/123 102/102/102
f 102/102/102 123/123/123 124/124/124
f 102/102/102 124/124/124 103/103/103
f 103/103/103 124/124/124 125/125/125
f 103/103/103 125/125/125 104/104/104
f 104/104/104 125/125/125 126/126/126
f 104/104/104 126/126/126 105/105/105
f 106/106/106 127/127/127 128/128/128
f 106/106/106 128/128/128 107/107/107
f 107/107/107 128/128/128 129/129/129
f 107/107/107 129/129/129 108/108/108
f 108/108/108 129/129/129 130/130/130
f 108/108/108 130/130/130 109/109/109
f 109/109/109 130/130/130 131/131/131
f 109/109/109 131/131/131 110/110/110
f 110/110/110 131/131/131 132/132/132
f 110/110/110 132/132/132 111/111/111
f 111/111/111 132/132/132 133/133/133
f 111/111/111 133/133/133 112/112/112
f 112/112/112 133/133/133 134/134/134
f 112/112/112 134/134/134 113/113/113
f 113/113/113 134/134/134 135/135/135
f 113/113/113 135/135/135 114/114/114
f 114/114/114 135/135/135 136/136/136
f 114/114/114 136/136/136 115/115/115
f 115/115/115 136/136/136 137/137/137
f 115/115/115 137/137/137 116/116/116
f 116/116/116 137/137/137 138/138/138
f 116/116/116 138/138/138 117/117/117
f 117/117/117 138/138/138 139/139/139
f 117/117/117 139/139/139 118/118/118
f 118/118/118 139/139/139 140/140/140
f 118/118/118 140/140/140 119/119/119
f 119/119/119 140/140/140 141/141/141
f 119/119/119 141/141/141 120/120/120
f 120/120/120 141/141/141 142/142/142
f 120/120/120 142/142/142 121/121/121
f 121/121/121 142/142/142 143/143/143
f 121/121/121 143/143/143 122/122/122
f 122/122/122 143/143/143 144/144/144
f 122/122/122 144/144/144 123/123/123
f 123/123/123 144/144/144 145/145/145
f 123/123/123 145/145/145 124/124/124
f 124/124/124 145/145/145 146/146/146
f 124/124/124 146/146/146 125/125/125
f 125/125/125 146/146/146 147/147/147
f 125/125/125 147/147/147 126/126/126
f 127/127/127 148/148/148 149/149/149
f 127/127/127 149/149/149 128/128/128
f 128/128/128 149/149/149 150/150/150
f 128/128/128 150/150/150 129/129/129
f 129/129/129 150/150/150 151/151/151
f 129/129/129 151/151/151 130/130/130
f 130/130/130 151/151/151 152/152/152
f 130/130/130 152/152/152 131/131/131
f 131/131/131 152/152/152 153/153/153
f 131/131/131 153/153/153 132/132/132
f 132/132/132 153/153/153 154/154/154
f 132/132/132 154/154/154 133/133/133
f 133/133/133 154/154/154 155/155/155
f 133/133/133 155/155/155 134/134/134
f 134/134/134 155/155/155 156/156/156
f 134/134/134 156/156/156 135/135/135
f 135/135/135 156/156/156 157/157/157
f 135/135/135 157/157/157 136/136/136
f 136/136/136 157/157/157 158/158/158
f 136/136/136 158/158/158 137/137/137
f 137/137/137 158/158/158 159/159/159
f 137/137/137 159/159/159 138/138/138
f 138/138/138 159/159/159 160/160/160
f 138/138/138 160/160/160 139/139/139
f 139/139/139 160/160/160 161/161/161
f 139/139/139 161/161/161 140/140/140
f 140/140/140 161/161/161 162/162/162
f 140/140/140 162/162/162 141/141/141
f 141/141/141 162/162/162 163/163/163
f 141/141/141 163/163/163 142/142/142
f 142/142/142 163/163/163 164/164/164
f 142/142/142 164/164/164 143/143/143
f 143/143/143 164/164/164 165/165/165
f 143/143/143 165/165/165 144/144/144
f 144/144/144 165/165/165 166/166/166
f 144/144/144 166/166/166 145/145/145
f 145/145/145 166/166/166 167/167/167
f 145/145/145 167/167/167 146/146/146
f 146/146/146 167/167/167 168/168/168
f 146/146/146 168/168/168 147/147/147
f 148/148/148 169/169/169 170/170/170
f 148/148/148 170/170/170 149/149/149
f 149/149/149 170/170/170 171/171/171
f 149/149/149 171/171/171 150/150/150
f 150/150/150 171/171/171 172/172/172
f 150/150/150 172/172/172 151/151/151
f 151/151/151 172/172/172 173/173/173
f 151/151/151 173/173/173 152/152/152
f 152/152/152 173/173/173 174/174/174
f 152/152/152 174/174/174 153/153/153
f 153/153/153 174/174/174 175/175/175
f 153/153/153 175/175/175 154/154/154
f 154/154/154 175/175/175 176/176/176
f 154/154/154 176/176/176 155/155/155
f 155/155/155 176/176/176 177/177/177
f 155/155/155 177/177/177 156/156/156
f 156/156/156 177/177/177 178/178/178
f 156/156/156 178/178/178 157/157/157
f 157/157/157 178/178/178 179/179/179
f 157/157/157 179/179/179 158/158/158
f 158/158/158 179/179/179 180/180/180
f 158/158/158 180/180/180 159/159/159
f 159/159/159 180/180/180 181/181/181
f 159/159/159 181/181/181 160/160/160
f 160/160/160 181/181/181 182/182/182
f 160/160/160 182/182/182 161/161/161
f 161/161/161 182/182/182 183/183/183
f 161/161/161 183/183/183 162/162/162
f 162/162/162 183/183/183 184/184/184
f 162/162/162 184/184/184 163/163/163
f 163/163/163 184/184/184 185/185/185
f 163/163/163 185/185/185 164/164/164
f 164/164/164 185/185/185 186/186/186
f 164/164/164 186/186/186 165/165/165
f 165/165/165 186/186/186 187/187/187
f 165/165/165 187/187/187 166/166/166
f 166/166/166 187/187/187 188/188/188
f 166/166/166 188/188/188 167/167/167
f 167/167/167 188/188/188 189/189/189
f 167/167/167 189/189/189 168/168/168
f 169/169/169 190/190/190 191/191/191
f 169/169/169 191/191/191 170/170/170
f 170/170/170 191/191/191 192/192/192
f 170/170/170 192/192/192 171/171/171
f 171/171/171 192/192/192 193/193/193
f 171/171/171 193/193/193 172/172/172
f 172/172/172 193/193/193 194/194/194
f 172/172/172 194/194/194 173/173/173
f 173/173/173 194/194/194 195/195/195
f 173/173/173 195/195/195 174/174/174
f 174/174/174 195/195/195 196/196/196
f 174/174/174 196/196/196 175/175/175
f 175/175/175 196/196/196 197/197/197
f 175/175/175 197/197/197 176/176/176
f 176/176/176 197/197/197 198/198/198
f 176/176/176 198/198/198 177/177/177
f 177/177/177 198/198/198 199/199/199
f 177/177/177 199/199/199 178/178/178
f 178/178/178 199/199/199 200/200/200
f 178/178/178 200/200/200 179/179/179
f 179/179/179 200/200/200 201/201/201
f 179/179/179 201/201/201 180/180/180
f 180/180/180 201/201/201 202/202/202
f 180/180/180 202/202/202 181/181/181
f 181/181/181 202/202/202 203/203/203
f 181/181/181 203/203/203 182/182/182
f 182/182/182 203/203/203 204/204/204
f 182/182/182 204/204/204 183/183/183
f 183/183/183 204/204/204 205/205/205
f 183/183/183 205/205/205 184/184/184
f 184/184/184 205/205/205 206/206/206
f 184/184/184 206/206/206 185/185/185
f 185/185/185 206/206/206 207/207/207
f 185/185/185 207/207/207 186/186/186
f 186/186/186 207/207/207 208/208/208
f 186/186/186 208/208/208 187/187/187
f 187/187/187 208/208/208 209/209/209
f 187/187/187 209/209/209 188/188/188
f 188/188/188 209/209/209 210/210/210
f 188/188/188 210/210/210 189/189/189
f 190/190/190 211/211/211 212/212/212
f 190/190/190 212/212/212 191/191/191
f 191/191/191 212/212/212 213/213/213
f 191/191/191 213/213/213 192/192/192
f 192/192/192 213/213/213 214/214/214
f 192/192/192 214/214/214 193/193/193
f 193/193/193 214/214/214 215/215/215
f 193/193/193 215/215/215 194/194/194
f 194/194/194 215/215/215 216/216/216
f 194/194/194 216/216/216 195/195/195
f 195/195/195 216/216/216 217/217/217
f 195/195/195 217/217/217 196/196/196
f 196/196/196 217/217/217 218/218/218
f 196/196/196 218/218/218 197/197/197
f 197/197/197 218/218/218 219/219/219
f 197/197/197 219/219/219 198/198/198
f 198/198/198 219/219/219 220/220/220
f 198/198/198 220/220/220 199/199/199
f 199/199/199 220/220/220 221/221/221
f 199/199/199 221/221/221 200/200/200
f 200/200/200 221/221/221 222/222/222
f 200/200/200 222/222/222 201/201/201
f 201/201/201 222/222/222 223/223/223
f 201/201/201 223/223/223 202/202/202
f 202/202/202 223/223/223 224/224/224
f 202/202/202 224/224/224 203/203/203
f 203/203/203 224/224/224 225/225/225
f 203/203/203 225/225/225 204/204/204
f 204/204/204 225/225/225 226/226/226
f 204/204/204 226/226/226 205/205/205
f 205/205/205 226/226/226 227/227/227
f 205/205/205 227/227/227 206/206/206
f 206/206/206 227/227/227 228/228/228
f 206/206/206 228/228/228 207/207/207
f 207/207/207 228/228/228 229/229/229
f 207/207/207 229/229/229 208/208/208
f 208/208/208 229/229/229 230/230/230
f 208/208/208 230/230/230 209/209/209
f 209/209/209 230/230/230 231/231/231
f 209/209/209 231/231/231 210/210/210
f 211/211/211 232/232/232 233/233/233
f 211/211/211 233/233/233 212/212/212
f 212/212/212 233/233/233 234/234/234
f 212/212/212 234/234/234 213/213/213
f 213/213/213 234/234/234 235/235/235
f 213/213/213 235/235/235 214/214/214
f 214/214/214 235/235/235 236/236/236
f 214/214/214 236/236/236 215/215/215
f 215/215/215 236/236/236 237/237/237
f 215/215/215 237/237/237 216/216/216
f 216/216/216 237/237/237 238/238/238
f 216/216/216 238/238/238 217/217/217
f 217/217/217 238/238/238 239/239/239
f 217/217/217 239/239/239 218/218/218
f 218/218/218 239/239/239 240/240/240
f 218/218/218 240/240/240 219/219/219
f 219/219/219 240/240/240 241/241/241
f 219/219/219 241/241/241 220/220/220
f 220/220/220 241/241/241 242/242/242
f 220/220/220 242/242/242 221/221/221
f 221/221/221 242/242/242 243/243/243
f 221/221/221 243/243/243 222/222/222
f 222/222/222 243/243/243 244/244/244
f 222/222/222 244/244/244 223/223/223
f 223/223/223 244/244/244 245/245/245
f 223/223/223 245/245/245 224/224/224
f 224/224/224 245/245/245 246/246/246
f 224/224/224 246/246/246 225/225/225
f 225/225/225 246/246/246 247/247/247
f 225/225/225 247/247/247 226/226/226
f 226/226/226 247/247/247 248/248/248
f 226/226/226 248/248/248 227/227/227
f 227/227/227 248/248/248 249/249/249
f 227/227/227 249/249/249 228/228/228
f 228/228/228 249/249/249 250/250/250
f 228/228/228 250/250/250 229/229/229
f 229/229/229 250/250/250 251/251/251
f 229/229/229 251/251/251 230/230/230
f 230/230/230 251/251/251 252/252/252
f 230/230/230 252/252/252 231/231/231
f 232/232/232 253/253/253 254/254/254
f 232/232/232 254/254/254 233/233/233
f 233/233/233 254/254/254 255/255/255
f 233/233/233 255/255/255 234/234/234
f 234/234/234 255/255/255 256/256/256
f 234/234/234 256/256/256 235/235/235
f 235/235/235 256/256/256 257/257/257
f 235/235/235 257/257/257 236/236/236
f 236/236/236 257/257/257 258/258/258
f 236/236/236 258/258/258 237/237/237
f 237/237/237 258/258/258 259/259/259
f 237/237/237 259/259/259 238/238/238
f 238/238/238 259/259/259 260/260/260
f 238/238/238 260/260/260 239/239/239
f 239/239/239 260/260/260 261/261/261
f 239/239/239 261/261/261 240/240/240
f 240/240/240 261/261/261 262/262/262
f 240/240/240 262/262/262 241/241/241
f 241/241/241 262/262/262 263/263/263
f 241/241/241 263/263/263 242/242/242
f 242/242/242 263/263/263 264/264/264
f 242/242/242 264/264/264 243/243/243
f 243/243/243 264/264/264 265/265/265
f 243/243/243 265/265/265 244/244/244
f 244/244/244 265/265/265 266/266/266
f 244/244/244 266/266/266 245/245/245
f 245/245/245 266/266/266 267/267/267
f 245/245/245 267/267/267 246/246/246
f 246/246/246 267/267/267 268/268/268
f 246/246/246 268/268/268 247/247/247
f 247/247/247 268/268/268 269/269/269
f 247/247/247 269/269/269 248/248/248
f 248/248/248 269/269/269 270/270/270
f 248/248/248 270/270/270 249/249/249
f 249/249/249 270/270/270 271/271/271
f 249/249/249 271/271/271 250/250/250
f 250/250/250 271/271/271 272/272/272
f 250/250/250 272/272/272 251/251/251
f 251/251/251 272/272/272 273/273/273
f 251/251/251 273/273/273 252/252/252
f 253/253/253 274/274/274 275/275/275
f 253/253/253 275/275/275 254/254/254
f 254/254/254 275/275/275 276/276/276
f 254/254/254 276/276/276 255/255/255
f 255/255/255 276/276/276 277/277/277
f 255/255/255 277/277/277 256/256/256
f 256/256/256 277/277/277 278/278/278
f 256/256/256 278/278/278 257/257/257
f 257/257/257 278/278/278 279/279/279
f 257/257/257 279/279/279 258/258/258
f 258/258/258 279/279/279 280/280/280
f 258/258/258 280/280/280 259/259/259
f 259/259/259 280/280/280 281/281/281
f 259/259/259 281/281/281 260/260/260
f 260/260/260 281/281/281 282/282/282
f 260/260/260 282/282/282 261/261/261
f 261/261/261 282/282/282 283/283/283
f 261/261/261 283/283/283 262/262/262
f 262/262/262 283/283/283 284/284/284
f 262/262/262 284/284/284 263/263/263
f 263/263/263 284/284/284 285/285/285
f 263/263/263 285/285/285 264/264/264
f 264/264/264 285/285/285 286/286/286
f 264/264/264 286/286/286 265/265/265
f 265/265/265 286/286/286 287/287/287
f 265/265/265 287/287/287 266/266/266
f 266/266/266 287/287/287 288/288/288
f 266/266/266 288/288/288 267/267/267
f 267/267/267 288/288/288 289/289/289
f 267/267/267 289/289/289 268/268/268
f 268/268/268 289/289/289 290/290/290
f 268/268/268 290/290/290 269/269/269
f 269/269/269 290/290/290 291/291/291
f 269/269/269 291/291/291 270/270/270
f 270/270/270 291/291/291 292/292/292
f 270/270/270 292/292/292 271/271/271
f 271/271/271 292/292/292 293/293/293
f 271/271/271 293/293/293 272/272/272
f 272/272/272 293/293/293 294/294/294
f 272/272/272 294/294/294 273/273/273
f 274/274/274 295/295/295 296/296/296
f 274/274/274 296/296/296 275/275/275
f 275/275/275 296/296/296 297/297/297
f 275/275/275 297/297/297 276/276/276
f 276/276/276 297/297/297 298/298/298
f 276/276/276 298/298/298 277/277/277
f 277/277/277 298/298/298 299/299/299
f 277/277/277 299/299/299 278/278/278
f 278/278/278 299/299/299 300/300/300
f 278/278/278 300/300/300 279/279/279
f 279/279/279 300/300/300 301/301/301
f 279/279/279 301/301/301 280/280/280
f 280/280/280 301/301/301 302/302/302
f 280/280/280 302/302/302 281/281/281
f 281/281/281 302/302/302 303/303/303
f 281/281/281 303/303/303 282/282/282
f 282/282/282 303/303/303 304/304/304
f 282/282/282 304/304/304 283/283/283
f 283/283/283 304/304/304 305/305/305
f 283/283/283 305/305/305 284/284/284
f 284/284/284 305/305/305 306/306/306
f 284/284/284 306/306/306 285/285/285
f 285/285/285 306/306/306 307/307/307
f 285/285/285 307/307/307 286/286/286
f 286/286/286 307/307/307 308/308/308
f 286/286/286 308/308/308 287/287/287
f 287/287/287 308/308/308 309/309/309
f 287/287/287 309/309/309 288/288/288
f 288/288/288 309/309/309 310/310/310
f 288/288/288 310/310/310 289/289/289
f 289/289/289 310/310/310 311/311/311
f 289/289/289 311/311/311 290/290/290
f 290/290/290 311/311/311 312/312/312
f 290/290/290 312/312/312 291/291/291
f 291/291/291 312/312/312 313/313/313
f 291/291/291 313/313/313 292/292/292
f 292/292/292 313/313/313 314/314/314
f 292/292/292 314/314/314 293/293/293
f 293/293/293 314/314/314 315/315/315
f 293/293/293 315/315/315 294/294/294
f 295/295/295 316/316/316 317/317/317
f 295/295/295 317/317/317 296/296/296
f 296/296/296 317/317/317 318/318/318
f 296/296/296 318/318/318 297/297/297
f 297/297/297 318/318/318 319/319/319
f 297/297/297 319/319/319 298/298/298
f 298/298/298 319/319/319 320/320/320
f 298/298/298 320/320/320 299/299/299
f 299/299/299 320/320/320 321/321/321
f 299/299/299 321/321/321 300/300/300
f 300/300/300 321/321/321 322/322/322
f 300/300/300 322/322/322 301/301/301
f 301/301/301 322/322/322 323/323/323
f 301/301/301 323/323/323 302/302/302
f 302/302/302 323/323/323 324/324/324
f 302/302/302 324/324/324 303/303/303
f 303/303/303 324/324/324 325/325/325
f 303/303/303 325/325/325 304/304/304
f 304/304/304 325/325/325 326/326/326
f 304/304/304 326/326/326 305/305/305
f 305/305/305 326/326/326 327/327/327
f 305/305/305 327/327/327 306/306/306
f 306/306/306 327/327/327 328/328/328
f 306/306/306 328/328/328 307/307/307
f 307/307/307 328/328/328 329/329/329
f 307/307/307 329/329/329 308/308/308
f 308/308/308 329/329/329 330/330/330
f 308/308/308 330/330/330 309/309/309
f 309/309/309 330/330/330 331/331/331
f 309/309/309 331/331/331 310/310/310
f 310/310/310 331/331/331 332/332/332
f 310/310/310 332/332/332 311/311/311
f 311/311/311 332/332/332 333/333/333
f 311/311/311 333/333/333 312/312/312
f 312/312/312 333/333/333 334/334/334
f 312/312/312 334/334/334 313/313/313
f 313/313/313 334/334/334 335/335/335
f 313/313/313 335/335/335 314/314/314
f 314/314/314 335/335/335 336/336/336
f 314/314/314 336/336/336 315/315/315
f 316/316/316 337/337/337 338/338/338
f 316/316/316 338/338/338 317/317/317
f 317/317/317 338/338/338 339/339/339
f 317/317/317 339/339/339 318/318/318
f 318/318/318 339/339/339 340/340/340
f 318/318/318 340/340/340 319/319/319
f 319/319/319 340/340/340 341/341/341
f 319/319/319 341/341/341 320/320/320
f 320/320/320 341/341/341 342/342/342
f 320/320/320 342/342/342 321/321/321
f 321/321/321 342/342/342 343/343/343
f 321/321/321 343/343/343 322/322/322
f 322/322/322 343/343/343 344/344/344
f 322/322/322 344/344/344 323/323/323
f 323/323/323 344/344/344 345/345/345
f 323/323/323 345/345/345 324/324/324
f 324/324/324 345/345/345 346/346/346
f 324/324/324 346/346/346 325/325/325
f 325/325/325 346/346/346 347/347/347
f 325/325/325 347/347/347 326/326/326
f 326/326/326 347/347/347 348/348/348
f 326/326/326 348/348/348 327/327/327
f 327/327/327 348/348/348 349/349/349
f 327/327/327 349/349/349 328/328/328
f 328/328/328 349/349/349 350/350/350
f 328/328/328 350/350/350 329/329/329
f 329/329/329 350/350/350 351/351/351
f 329/329/329 351/351/351 330/330/330
f 330/330/330 351/351/351 352/352/352
f 330/330/330 352/352/352 331/331/331
f 331/331/331 352/352/352 353/353/353
f 331/331/331 353/353/353 332/332/332
f 332/332/332 353/353/353 354/354/354
f 332/332/332 354/354/354 333/333/333
f 333/333/333 354/354/354 355/355/355
f 333/333/333 355/355/355 334/334/334
f 334/334/334 355/355/355 356/356/356
f 334/334/334 356/356/356 335/335/335
f 335/335/335 356/356/356 357/357/357
f 335/335/335 357/357/357 336/336/336
