# SM_BackgroundBackdrop mesh
o SM_BackgroundBackdrop
v -8.0000 -12.0000 0.0000
v -6.0000 -12.0000 0.7654
v -4.0000 -12.0000 1.4142
v -2.0000 -12.0000 1.8478
v 0.0000 -12.0000 2.0000
v 2.0000 -12.0000 1.8478
v 4.0000 -12.0000 1.4142
v 6.0000 -12.0000 0.7654
v 8.0000 -12.0000 0.0000
v -8.0000 -6.0000 0.0000
v -6.0000 -6.0000 0.7654
v -4.0000 -6.0000 1.4142
v -2.0000 -6.0000 1.8478
v 0.0000 -6.0000 2.0000
v 2.0000 -6.0000 1.8478
v 4.0000 -6.0000 1.4142
v 6.0000 -6.0000 0.7654
v 8.0000 -6.0000 0.0000
v -8.0000 0.0000 0.0000
v -6.0000 0.0000 0.7654
v -4.0000 0.0000 1.4142
v -2.0000 0.0000 1.8478
v 0.0000 0.0000 2.0000
v 2.0000 0.0000 1.8478
v 4.0000 0.0000 1.4142
v 6.0000 0.0000 0.7654
v 8.0000 0.0000 0.0000
v -8.0000 6.0000 0.0000
v -6.0000 6.0000 0.7654
v -4.0000 6.0000 1.4142
v -2.0000 6.0000 1.8478
v 0.0000 6.0000 2.0000
v 2.0000 6.0000 1.8478
v 4.0000 6.0000 1.4142
v 6.0000 6.0000 0.7654
v 8.0000 6.0000 0.0000
v -8.0000 12.0000 0.0000
v -6.0000 12.0000 0.7654
v -4.0000 12.0000 1.4142
v -2.0000 12.0000 1.8478
v 0.0000 12.0000 2.0000
v 2.0000 12.0000 1.8478
v 4.0000 12.0000 1.4142
v 6.0000 12.0000 0.7654
v 8.0000 12.0000 0.0000
vt 0.0000 0.0000
vt 0.1250 0.0000
vt 0.2500 0.0000
vt 0.3750 0.0000
vt 0.5000 0.0000
vt 0.6250 0.0000
vt 0.7500 0.0000
vt 0.8750 0.0000
vt 1.0000 0.0000
vt 0.0000 0.2500
vt 0.1250 0.2500
vt 0.2500 0.2500
vt 0.3750 0.2500
vt 0.5000 0.2500
vt 0.6250 0.2500
vt 0.7500 0.2500
vt 0.8750 0.2500
vt 1.0000 0.2500
vt 0.0000 0.5000
vt 0.1250 0.5000
vt 0.2500 0.5000
vt 0.3750 0.5000
vt 0.5000 0.5000
vt 0.6250 0.5000
vt 0.7500 0.5000
vt 0.8750 0.5000
vt 1.0000 0.5000
vt 0.0000 0.7500
vt 0.1250 0.7500
vt 0.2500 0.7500
vt 0.3750 0.7500
vt 0.5000 0.7500
vt 0.6250 0.7500
vt 0.7500 0.7500
vt 0.8750 0.7500
vt 1.0000 0.7500
vt 0.0000 1.0000
vt 0.1250 1.0000
vt 0.2500 1.0000
vt 0.3750 1.0000
vt 0.5000 1.0000
vt 0.6250 1.0000
vt 0.7500 1.0000
vt 0.8750 1.0000
vt 1.0000 1.0000
vn 0.0000 0.0000 -1.0000
vn 0.0000 0.0000 -1.0000
vn 0.0000 0.0000 -1.0000
vn 0.0000 0.0000 -1.0000
vn 0.0000 0.0000 -1.0000
vn 0.0000 0.0000 -1.0000
vn 0.0000 0.0000 -1.0000
vn 0.0000 0.0000 -1.0000
vn 0.0000 0.0000 -1.0000
vn 0.0000 0.0000 -1.0000
vn 0.0000 0.0000 -1.0000
vn 0.0000 0.0000 -1.0000
vn 0.0000 0.0000 -1.0000
vn 0.0000 0.0000 -1.0000
vn 0.0000 0.0000 -1.0000
vn 0.0000 0.0000 -1.0000
vn 0.0000 0.0000 -1.0000
vn 0.0000 0.0000 -1.0000
vn 0.0000 0.0000 -1.0000
vn 0.0000 0.0000 -1.0000
vn 0.0000 0.0000 -1.0000
vn 0.0000 0.0000 -1.0000
vn 0.0000 0.0000 -1.0000
vn 0.0000 0.0000 -1.0000
vn 0.0000 0.0000 -1.0000
vn 0.0000 0.0000 -1.0000
vn 0.0000 0.0000 -1.0000
vn 0.0000 0.0000 -1.0000
vn 0.0000 0.0000 -1.0000
vn 0.0000 0.0000 -1.0000
vn 0.0000 0.0000 -1.0000
vn 0.0000 0.0000 -1.0000
vn 0.0000 0.0000 -1.0000
vn 0.0000 0.0000 -1.0000
vn 0.0000 0.0000 -1.0000
vn 0.0000 0.0000 -1.0000
vn 0.0000 0.0000 -1.0000
vn 0.0000 0.0000 -1.0000
vn 0.0000 0.0000 -1.0000
vn 0.0000 0.0000 -1.0000
vn 0.0000 0.0000 -1.0000
vn 0.0000 0.0000 -1.0000
vn 0.0000 0.0000 -1.0000
vn 0.0000 0.0000 -1.0000
vn 0.0000 0.0000 -1.0000
f 1/1/1 10/10/10 11/11/11
f 1/1/1 11/11/11 2/2/2
f 2/2/2 11/11/11 12/12/12
f 2/2/2 12/12/12 3/3/3
f 3/3/3 12/12/12 13/13/13
f 3/3/3 13/13/13 4/4/4
f 4/4/4 13/13/13 14/14/14
f 4/4/4 14/14/14 5/5/5
f 5/5/5 14/14/14 15/15/15
f 5/5/5 15/15/15 6/6/6
f 6/6/6 15/15/15 16/16/16
f 6/6/6 16/16/16 7/7/7
f 7/7/7 16/16/16 17/17/17
f 7/7/7 17/17/17 8/8/8
f 8/8/8 17/17/17 18/18/18
f 8/8/8 18/18/18 9/9/9
f 10/10/10 19/19/19 20/20/20
f 10/10/10 20/20/20 11/11/11
f 11/11/11 20/20/20 21/21/21
f 11/11/11 21/21/21 12/12/12
f 12/12/12 21/21/21 22/22/22
f 12/12/12 22/22/22 13/13/13
f 13/13/13 22/22/22 23/23/23
f 13/13/13 23/23/23 14/14/14
f 14/14/14 23/23/23 24/24/24
f 14/14/14 24/24/24 15/15/15
f 15/15/15 24/24/24 25/25/25
f 15/15/15 25/25/25 16/16/16
f 16/16/16 25/25/25 26/26/26
f 16/16/16 26/26/26 17/17/17
f 17/17/17 26/26/26 27/27/27
f 17/17/17 27/27/27 18/18/18
f 19/19/19 28/28/28 29/29/29
f 19/19/19 29/29/29 20/20/20
f 20/20/20 29/29/29 30/30/30
f 20/20/20 30/30/30 21/21/21
f 21/21/21 30/30/30 31/31/31
f 21/21/21 31/31/31 22/22/22
f 22/22/22 31/31/31 32/32/32
f 22/22/22 32/32/32 23/23/23
f 23/23/23 32/32/32 33/33/33
f 23/23/23 33/33/33 24/24/24
f 24/24/24 33/33/33 34/34/34
f 24/24/24 34/34/34 25/25/25
f 25/25/25 34/34/34 35/35/35
f 25/25/25 35/35/35 26/26/26
f 26/26/26 35/35/35 36/36/36
f 26/26/26 36/36/36 27/27/27
f 28/28/28 37/37/37 38/38/38
f 28/28/28 38/38/38 29/29/29
f 29/29/29 38/38/38 39/39/39
f 29/29/29 39/39/39 30/30/30
f 30/30/30 39/39/39 40/40/40
f 30/30/30 40/40/40 31/31/31
f 31/31/31 40/40/40 41/41/41
f 31/31/31 41/41/41 32/32/32
f 32/32/32 41/41/41 42/42/42
f 32/32/32 42/42/42 33/33/33
f 33/33/33 42/42/42 43/43/43
f 33/33/33 43/43/43 34/34/34
f 34/34/34 43/43/43 44/44/44
f 34/34/34 44/44/44 35/35/35
f 35/35/35 44/44/44 45/45/45
f 35/35/35 45/45/45 36/36/36
